<svg width="40" height="40" viewBox="0 0 40 40" fill="none" xmlns="http://www.w3.org/2000/svg">
<path d="M9.39359 0.0187187C9.30749 0.0421982 8.95524 0.112629 8.61082 0.175232C4.93179 0.871716 1.75373 3.6733 0.524779 7.28875C-0.0309898 8.92432 0.000321086 8.14175 0.000321086 20.0054C0.000321086 30.0223 0.00814882 30.7266 0.14122 31.3526C1.06489 35.6802 4.32123 38.9357 8.64996 39.8591C9.27618 39.9922 9.98067 40 20.0002 40C30.0197 40 30.7241 39.9922 31.3504 39.8591C35.6791 38.9357 38.9354 35.6802 39.8591 31.3526C39.9922 30.7266 40 30.0223 40 20.0054C40 9.98861 39.9922 9.2843 39.8591 8.65825C39.045 4.8315 36.3523 1.76384 32.7202 0.535213C31.0842 -0.0204086 32.0001 0.0187187 20.1959 0.00306702C14.3407 -0.00475693 9.4797 0.00306702 9.39359 0.0187187ZM31.2329 2.60901C33.4482 3.27419 35.1625 4.50282 36.2427 6.19316C37.0803 7.50005 37.4795 8.68955 37.6125 10.2782C37.7143 11.499 37.7143 28.5119 37.6125 29.7327C37.4951 31.1335 37.2603 31.9474 36.6106 33.176C35.5147 35.2655 33.5186 36.8071 31.139 37.4097C30.1919 37.6523 28.7829 37.6914 20.0002 37.6914C11.2175 37.6914 9.80846 37.6523 8.86131 37.4097C5.73022 36.6193 3.468 34.3577 2.56782 31.1179C2.43474 30.6405 2.42692 29.991 2.42692 20.0054C2.42692 10.0199 2.43474 9.37038 2.56782 8.89301C3.3819 5.98187 5.28404 3.85329 7.96112 2.86726C8.4073 2.71075 9.17442 2.50728 9.55015 2.4525C9.68322 2.43685 14.4894 2.4212 20.235 2.42902C30.6224 2.44467 30.685 2.44467 31.2329 2.60901Z" fill="white"/>
<path d="M30.2232 5.29366C28.8533 5.73192 27.9766 6.9293 27.9766 8.3693C27.9688 10.2554 29.3621 11.6484 31.2486 11.6406C32.7046 11.6406 33.8944 10.7562 34.3327 9.37103C35.1155 6.84322 32.7437 4.48757 30.2232 5.29366ZM31.7887 7.8293C32.094 8.13452 32.141 8.49452 31.9218 8.81538C31.7104 9.1206 31.5695 9.19886 31.2173 9.20669C30.959 9.20669 30.8416 9.15973 30.6537 8.96408C30.1214 8.43191 30.4971 7.56321 31.2564 7.56321C31.4521 7.56321 31.593 7.63365 31.7887 7.8293Z" fill="white"/>
<path d="M18.1998 9.15926C13.6362 9.98093 10.1842 13.3068 9.22137 17.8142C9.01785 18.7611 9.01785 21.2496 9.22137 22.1965C10.1529 26.5474 13.4562 29.8498 17.8084 30.781C18.7555 30.9845 21.2447 30.9845 22.1919 30.781C26.5441 29.8498 29.8474 26.5474 30.7789 22.1965C30.8885 21.68 30.9198 21.1792 30.9198 20.0053C30.9198 18.3229 30.8337 17.7281 30.3953 16.4448C29.1586 12.8137 26.0823 10.0827 22.2702 9.24534C21.4717 9.06536 19.006 9.0184 18.1998 9.15926ZM21.5422 11.593C25.0255 12.2503 27.7574 14.9814 28.4149 18.4637C28.5637 19.2619 28.5637 20.7488 28.4149 21.547C27.7574 25.0293 25.0255 27.7604 21.5422 28.4177C20.7438 28.5664 19.2565 28.5664 18.4581 28.4177C14.9747 27.7604 12.2429 25.0293 11.5853 21.547C11.4366 20.7488 11.4366 19.2619 11.5853 18.4637C12.2429 15.0049 14.9513 12.2816 18.4033 11.6008C19.1469 11.4521 20.7751 11.4521 21.5422 11.593Z" fill="white"/>
</svg>
