<svg width="61" height="61" viewBox="0 0 61 61" fill="none" xmlns="http://www.w3.org/2000/svg">
<path d="M27.6832 0.797991C27.7784 1.97711 27.7308 1.91756 28.7067 1.88183L29.5755 1.8461L29.6112 0.917094L29.6469 -1.19209e-07H28.6353H27.6237L27.6832 0.797991Z" fill="white"/>
<path d="M31.3251 0.916973L31.3608 1.8459L32.2058 1.88163L33.0508 1.91736L33.1342 1.53626C33.1699 1.3338 33.2056 0.905063 33.2056 0.583511V-4.75645e-05H32.2534H31.2894L31.3251 0.916973Z" fill="white"/>
<path d="M24.4341 0.535938C18.3167 1.79856 13.318 4.5144 8.91436 8.92167C5.43908 12.4118 3.17777 16.021 1.61865 20.5712C0.57131 23.6682 0.130949 26.1458 0.035736 29.612C-0.0832804 34.0074 0.559408 37.7476 2.09472 41.6665C2.93974 43.8106 4.72498 47.1697 5.02252 47.1697C5.12964 47.1697 6.54593 46.2406 6.54593 46.1691C6.54593 46.1453 6.24839 45.6212 5.87944 45.0137C4.02279 41.869 2.77311 38.379 2.17803 34.6625C1.9162 32.9711 1.88049 28.266 2.11852 26.6818C2.93974 21.3454 4.99872 16.6285 8.29547 12.5071C9.28331 11.2563 11.2947 9.24329 12.5325 8.2308C15.8411 5.5507 20.4947 3.29942 24.3984 2.50135C25.0887 2.37032 25.779 2.22738 25.9337 2.19165C26.1836 2.13209 26.2074 2.09635 26.136 1.57224C25.9932 0.559761 25.9218 0.238152 25.8385 0.250061C25.8028 0.250061 25.172 0.381088 24.4341 0.535938Z" fill="white"/>
<path d="M34.9552 0.39286C34.9195 0.488155 34.86 0.90506 34.8124 1.34579C34.729 2.10813 34.7409 2.13195 35.0028 2.19151C35.1575 2.22725 35.8478 2.37019 36.5381 2.50121C40.4656 3.3112 45.0478 5.51485 48.404 8.23069C48.9158 8.63568 49.9274 9.5767 50.6534 10.3152C55.2594 14.9369 58.0682 20.7498 58.8656 27.2773C59.1036 29.1951 59.0441 32.84 58.7466 34.7221C58.1753 38.3551 56.8304 42.0715 54.9975 45.1328C54.6643 45.6807 54.3906 46.1453 54.3906 46.1572C54.3906 46.2048 55.8902 47.1697 55.9616 47.1697C56.0687 47.1697 57.2589 45.1328 57.8182 44.0131C59.4012 40.8208 60.4961 36.9376 60.8293 33.3165C61.0079 31.4106 60.9127 27.6823 60.6389 25.967C59.5797 19.1536 56.5805 13.3408 51.677 8.5523C47.4638 4.4428 42.0843 1.59593 36.5381 0.535801C35.9787 0.440506 35.4074 0.321392 35.2765 0.297569C35.1218 0.261833 34.9909 0.309479 34.9552 0.39286Z" fill="white"/>
<path d="M28.9567 7.08714C27.6713 7.44449 26.3502 8.34977 25.886 9.2074L25.6599 9.62431L24.0889 9.56475C23.0653 9.5171 22.256 9.54092 21.7562 9.63622C18.7688 10.2199 16.2457 12.4473 15.5316 15.1274C15.3412 15.854 15.3055 17.5574 15.4602 18.2602L15.5673 18.7128L14.9722 19.0106C13.2584 19.8802 12.1158 21.8217 12.2943 23.5846C12.4014 24.5495 12.5681 25.0379 13.1036 25.8359C13.9368 27.0866 15.4007 27.9324 16.9955 28.0753C17.412 28.111 17.7691 28.2063 17.7929 28.2778C17.8048 28.3493 17.8762 28.6709 17.9595 29.0044C18.7093 32.2444 22.1608 34.6624 26.017 34.6624H26.8977V36.5206V38.3788L26.6239 38.2001C25.2076 37.271 22.9582 35.9727 22.863 36.0203C22.7202 36.1156 21.8514 37.5212 21.9109 37.5688C21.9347 37.5926 23.0653 38.2954 24.434 39.1292L26.8977 40.642V41.2614C26.8858 43.8819 25.8265 45.7878 23.8747 46.705C23.47 46.8956 22.8154 47.0981 22.4226 47.1457L21.7205 47.2291L21.6847 48.1582L21.649 49.0754H22.3036C22.6488 49.0754 23.3153 48.9682 23.7556 48.8252C25.9812 48.1463 27.6713 46.4787 28.4092 44.2512C28.7186 43.3102 28.7186 43.2506 28.79 38.7361L28.8614 34.1859L29.6708 33.8048L30.4682 33.4355L31.2775 33.8048L32.0749 34.1859L32.1463 38.7361C32.2177 43.2506 32.2177 43.3102 32.5272 44.2512C33.2651 46.4787 34.9551 48.1463 37.1807 48.8252C37.6211 48.9682 38.2876 49.0754 38.6327 49.0754H39.2873L39.2516 48.1582L39.2159 47.2291L38.5137 47.1457C35.8477 46.8122 34.0506 44.4775 34.0387 41.3329V40.7849L36.5142 39.2722C37.871 38.4384 39.0493 37.7118 39.1445 37.6522C39.2754 37.5688 39.2159 37.4021 38.8707 36.8184C38.6208 36.4253 38.3709 36.068 38.3114 36.0203C38.2519 35.9846 37.2997 36.4968 36.2048 37.1757C35.1098 37.8428 34.1815 38.4145 34.1339 38.4384C34.0744 38.4622 34.0387 37.6284 34.0387 36.5802V34.6624H34.9194C37.3235 34.6624 39.5729 33.7571 41.1797 32.161C42.0842 31.2438 42.6436 30.2551 42.953 29.0401L43.1791 28.1706L43.9528 28.0872C48.3802 27.5869 50.2249 22.6913 47.071 19.7849C46.7854 19.5228 46.2855 19.1774 45.9641 19.0106L45.3691 18.7128L45.4762 18.2602C45.6309 17.5574 45.5952 15.854 45.4048 15.1274C45.0953 13.9363 44.5121 12.9834 43.5005 11.9709C42.9768 11.4468 42.2508 10.8393 41.87 10.6249C40.3585 9.73151 38.3471 9.32652 36.5023 9.52901C35.9667 9.60048 35.4669 9.64813 35.4074 9.64813C35.336 9.64813 35.1812 9.45754 35.0503 9.21931C34.7647 8.68329 33.9078 7.92095 33.1818 7.55169C31.944 6.92038 30.2539 6.74171 28.9567 7.08714ZM31.6226 8.99299C32.8366 9.35034 33.753 10.4105 33.9911 11.7088C34.0387 11.9947 34.122 12.1376 34.2053 12.1138C34.2886 12.0781 34.8004 11.9113 35.3598 11.7327C38.4661 10.7321 41.8343 12.0304 43.1672 14.7463C43.5957 15.6158 43.6195 15.6992 43.6195 16.8427C43.6195 17.9981 43.5957 18.0934 43.1553 19.0344C42.8935 19.5705 42.715 20.035 42.7507 20.0707C42.7745 20.0946 43.2149 20.2018 43.7028 20.2971C44.7264 20.4996 45.1548 20.6901 45.7618 21.2262C46.4045 21.786 46.702 22.4411 46.702 23.2869C46.702 24.1207 46.4997 24.5852 45.8094 25.2523C44.9168 26.1218 43.5362 26.4077 41.989 26.0384L41.2987 25.8836V26.8484C41.2987 29.1354 40.2989 30.8626 38.359 31.8989C36.0382 33.1377 33.3603 33.0067 31.1823 31.5535L30.4682 31.0651L29.7541 31.5535C27.5761 33.0067 24.8982 33.1377 22.5774 31.8989C20.6374 30.8626 19.6377 29.1354 19.6377 26.8484V25.8836L18.9593 26.0384C17.4001 26.4077 16.0196 26.1218 15.1269 25.2523C14.4366 24.5852 14.2343 24.1207 14.2343 23.2869C14.2343 21.7384 15.484 20.5115 17.2811 20.2971C18.3166 20.1779 18.3166 20.166 17.781 19.0344C17.3287 18.0815 17.3168 17.9981 17.3168 16.7951C17.3168 15.6516 17.3525 15.4848 17.662 14.8297C18.1619 13.8053 19.352 12.6618 20.4708 12.1019C22.2203 11.2443 23.9342 11.1609 25.9336 11.8518C26.4216 12.0185 26.8263 12.1376 26.8382 12.1138C26.8501 12.1019 26.9334 11.816 27.0048 11.4944C27.5047 9.45754 29.5041 8.36168 31.6226 8.99299Z" fill="white"/>
<path d="M23.589 14.8654C22.2917 15.3299 21.2206 16.6759 21.0897 17.9862L21.0302 18.5818H21.9823H22.9344L23.0058 18.153C23.1487 17.2834 24.0175 16.5568 24.922 16.5568C25.8027 16.5568 26.4811 17.0452 26.8501 17.9267C27.0167 18.3317 27.0286 18.4984 26.8977 19.2608C26.8144 19.7491 26.7668 20.1541 26.7906 20.178C26.8144 20.2018 27.1833 20.178 27.5999 20.1184C28.2545 20.0231 28.433 20.0469 28.8496 20.2494C29.4566 20.5353 29.7541 21.0237 29.7541 21.7146C29.7541 22.1672 29.6827 22.334 29.3494 22.6794C29.1352 22.9177 28.7901 23.144 28.5758 23.1797L28.2069 23.2512V24.1922V25.1332H28.5401C29.5637 25.1332 30.8134 24.2756 31.3489 23.2035C31.5989 22.7033 31.6584 22.4174 31.6584 21.7146C31.6584 20.0708 30.8134 18.8319 29.3613 18.3555C29.04 18.2483 28.9091 18.1292 28.8496 17.8909C28.5996 16.664 27.7784 15.5801 26.7311 15.044C25.9099 14.6152 24.5055 14.5437 23.589 14.8654Z" fill="white"/>
<path d="M6.68871 48.075L5.95081 48.6229L6.17694 48.9325C6.30786 49.1112 6.5816 49.4566 6.80773 49.7068L7.20049 50.1594L7.85508 49.5996C8.21213 49.3018 8.52158 49.004 8.54538 48.9445C8.58109 48.8492 7.66465 47.6105 7.50993 47.5509C7.46232 47.539 7.09337 47.7653 6.68871 48.075Z" fill="white"/>
<path d="M52.8672 48.1941C52.5815 48.5633 52.3673 48.8969 52.3911 48.9564C52.4149 49.0041 52.7243 49.3019 53.0814 49.5996L53.736 50.1476L54.1287 49.7069C54.3549 49.4567 54.6405 49.1113 54.7595 48.9326L54.9857 48.611L54.2835 48.0749C53.8907 47.7772 53.5337 47.527 53.4741 47.527C53.4265 47.527 53.1528 47.8248 52.8672 48.1941Z" fill="white"/>
<path d="M5.56997 55.3886L5.53427 57.7829L3.92754 55.4482L2.32082 53.1254H1.16636H0V57.0563V60.9871H0.952132H1.90426L1.92807 58.5095L1.96377 56.0199L3.67761 58.5095L5.39145 60.9871H6.45069H7.49804V56.9967V53.0063H6.54591H5.59378L5.56997 55.3886Z" fill="white"/>
<path d="M27.1357 55.5078C27.1357 58.319 27.2429 58.855 28.0165 59.7484C28.9329 60.8204 30.7062 61.285 32.1106 60.8204C32.92 60.5464 33.8245 59.7245 34.241 58.8669C34.5743 58.1998 34.5743 58.1522 34.61 55.5912L34.6576 53.0063H33.7055H32.7414L32.7057 55.4244L32.67 57.8544L32.3368 58.2832C31.6941 59.1289 30.6586 59.3434 29.8612 58.7954C29.1114 58.2832 29.04 57.9735 29.04 55.341V53.0063H28.0879H27.1357V55.5078Z" fill="white"/>
<path d="M11.5089 53.2922C10.5449 53.6496 9.96172 54.1975 9.39044 55.2695C9.1167 55.7817 9.1048 55.9366 9.06909 58.3904L9.02148 60.9871H9.98552H10.9496V59.796V58.6048H12.7943H14.6391V59.796V60.9871H15.6031H16.5553L16.5196 58.3904C16.4839 55.9366 16.472 55.7817 16.1982 55.2219C15.8412 54.5072 15.1866 53.8163 14.4963 53.4709C13.8417 53.1254 12.1992 53.0301 11.5089 53.2922ZM13.7584 55.2695C14.0797 55.472 14.6391 56.3178 14.6391 56.6156C14.6391 56.6632 13.806 56.6989 12.7943 56.6989C11.7827 56.6989 10.9496 56.6632 10.9496 56.6156C10.9496 56.3416 11.4851 55.5316 11.8065 55.2934C12.3183 54.9479 13.2109 54.936 13.7584 55.2695Z" fill="white"/>
<path d="M36.181 56.9968V60.868H37.1332H38.0853V59.4387V58.0093H39.7396C41.8105 58.0093 41.7748 57.9854 41.7748 59.7007V60.868H42.7389H43.7148L43.6553 59.4148C43.6077 58.3428 43.5363 57.8306 43.3816 57.509C43.1673 57.0802 43.1673 57.0444 43.3816 56.5918C43.8695 55.4959 43.5244 54.1737 42.5723 53.5186L42.0962 53.1851L39.1327 53.1493L36.181 53.1136V56.9968ZM41.513 55.1743C41.5963 55.2577 41.6558 55.4245 41.6558 55.5674C41.6558 56.0439 41.4535 56.1034 39.7277 56.1034H38.0853V55.5674V55.0314H39.7277C40.8465 55.0314 41.4178 55.079 41.513 55.1743Z" fill="white"/>
<path d="M47.4876 53.3278C47.1544 53.4469 46.7021 53.7685 46.2856 54.1854C45.3096 55.1741 45.2263 55.4958 45.2263 58.5095V60.9871H46.1785H47.1306V59.7959V58.6047H48.9158H50.7011V59.7959V60.9871H51.6532H52.6053V58.4499V55.9246L52.2602 55.2099C51.6056 53.84 50.4511 53.1253 48.9158 53.1372C48.4279 53.1372 47.7852 53.2325 47.4876 53.3278ZM49.8442 55.2694C50.2607 55.5196 50.7011 56.1509 50.7011 56.4844C50.7011 56.675 50.5345 56.6989 48.9158 56.6989C46.9164 56.6989 46.8925 56.6869 47.3686 55.8888C47.8685 55.0669 49.0229 54.7691 49.8442 55.2694Z" fill="white"/>
<path d="M18.2095 54.1974V55.1504H19.5187H20.8278V58.0688V60.9871H21.78H22.7321V58.0688V55.1504H24.1008H25.4695V54.1974V53.2445H21.8395H18.2095V54.1974Z" fill="white"/>
<path d="M54.0334 57.1158V60.9871H57.4849H60.9364V60.0342V59.0812H58.4371H55.9377V56.1629V53.2445H54.9856H54.0334V57.1158Z" fill="white"/>
</svg>
