<svg width="66" height="63" viewBox="0 0 66 63" fill="none" xmlns="http://www.w3.org/2000/svg">
<path d="M32.8711 0.611591C31.5691 0.880665 30.2543 1.34543 29.1973 1.89581C28.4754 2.27496 28.3207 2.29942 26.748 2.3728C25.8328 2.42172 24.5824 2.5318 23.9895 2.64187C17.3895 3.75486 11.8852 7.57082 8.83008 13.1235L8.1082 14.4444H4.04766H0V15.5452V16.6459H5.99414H11.9754L13.432 15.7409C14.2312 15.2394 15.1207 14.7747 15.4043 14.7013C15.6879 14.6279 16.9512 14.5667 18.2016 14.5667C20.4059 14.5667 20.4961 14.579 20.8312 14.848C21.2824 15.215 21.3082 15.8143 20.8957 16.1934C20.6379 16.438 20.4703 16.4625 18.8203 16.4992L17.0156 16.5481V17.5755V18.6028H20.8699H24.7371L25.098 18.8964L25.459 19.1899V21.5871C25.459 23.9109 25.4461 23.9843 25.1625 24.2534L24.866 24.5347L12.4395 24.5714L0 24.5958V25.6354V26.675H3.17109H6.35508L6.27773 28.4118C6.20039 30.3687 6.05859 30.9802 5.2207 33.035C4.44727 34.9429 4.25391 35.7869 4.25391 37.3768C4.25391 40.3 5.16914 42.1835 7.78594 44.6418L9.12656 45.9138L9.26836 45.4124C9.3457 45.1311 9.47461 44.6663 9.53906 44.3728C9.61641 44.0915 9.70664 43.7857 9.74531 43.6878C9.78398 43.5778 9.99023 43.7979 10.2609 44.2505C11.4469 46.1462 13.548 47.993 15.7137 49.0449C16.8996 49.6197 20.5734 50.855 20.7023 50.7327C20.741 50.696 20.0707 49.6809 19.2199 48.4578C17.4539 45.9261 17.1445 45.2289 17.1445 43.6756C17.1445 42.8317 17.5312 41.1072 17.7246 41.1072C17.7633 41.1072 18.0211 41.5597 18.3176 42.1101C18.6141 42.6727 19.1039 43.4555 19.4004 43.8591C20.5992 45.4491 22.8035 47.1369 24.6727 47.8952L25.5234 48.2376V49.6075V50.9773L19.8902 51.8579C16.7836 52.3471 13.8445 52.8486 13.3418 52.9953C9.30703 54.1083 6.56133 57.4962 6.35508 61.6179L6.27773 63H32.9871H59.6836V62.0949C59.6836 57.8387 56.8348 54.145 52.6582 52.9831C52.1555 52.8486 49.2164 52.3471 46.1227 51.8579L40.4766 50.9773V49.6075V48.2376L41.3273 47.8952C43.1965 47.1369 45.4008 45.4491 46.5996 43.8591C46.8961 43.4555 47.3859 42.6727 47.6824 42.1101C47.9789 41.5597 48.2367 41.1072 48.2754 41.1072C48.3012 41.1072 48.4559 41.4986 48.6105 41.9756C48.8297 42.6727 48.8684 43.0396 48.8297 43.9569C48.7395 45.4857 48.4816 46.0606 46.7285 48.5923C45.9164 49.7542 45.2848 50.7205 45.3105 50.7449C45.4266 50.8672 49.1648 49.583 50.2863 49.0449C52.452 47.993 54.5531 46.1462 55.7391 44.2505C56.0098 43.7979 56.216 43.5778 56.2547 43.6878C56.2934 43.7857 56.3836 44.1037 56.4609 44.4095C56.5383 44.7152 56.6672 45.18 56.7316 45.4368L56.8734 45.9138L58.1496 44.703C59.6707 43.2842 60.1348 42.7094 60.7664 41.4986C61.4625 40.1899 61.7461 39.0035 61.7461 37.3891C61.7461 35.8113 61.5656 35.0286 60.8309 33.2062C59.9672 31.0536 59.7996 30.3442 59.7223 28.4118L59.6449 26.675H62.8289H66V25.6354V24.5958L53.5605 24.5714L41.134 24.5347L40.8375 24.2534C40.5539 23.9843 40.541 23.9109 40.541 21.5871V19.1899L40.902 18.8964L41.2629 18.6028H45.1301H48.9844V17.5755V16.5481L47.1797 16.4992C45.5297 16.4625 45.3621 16.438 45.1043 16.1934C44.6918 15.8143 44.7176 15.215 45.1688 14.848C45.5039 14.579 45.5941 14.5667 47.7984 14.5667C49.0488 14.5667 50.3121 14.6279 50.5957 14.7013C50.8793 14.7747 51.7687 15.2394 52.568 15.7409L54.0246 16.6459H60.0059H66V15.5452V14.4444H61.7074H57.4148L56.6414 13.3681C55.2363 11.399 52.6195 9.20972 50.3766 8.13342C50.0285 7.96219 49.7578 7.79097 49.7836 7.74204C50.8535 5.76068 51.1758 4.74554 51.1758 3.24117V2.3728L49.2164 2.29942C47.0121 2.2138 45.7617 2.03034 43.132 1.40658C39.5355 0.550438 39.0328 0.477051 36.416 0.428131C34.3793 0.391438 33.7863 0.415901 32.8711 0.611591ZM37.9629 2.59295C38.6074 2.66634 40.425 3.02102 42.0234 3.37571C44.9238 4.03616 47.1797 4.41531 48.2109 4.41531C48.7523 4.41531 48.7523 4.41531 48.675 4.78223C48.5719 5.30815 47.966 6.4456 47.6437 6.7269C47.373 6.97151 47.3602 6.97151 46.1613 6.73913C45.491 6.61683 44.4082 6.47006 43.7508 6.42113L42.5391 6.33552V7.46074V8.57373H43.3641C44.9367 8.57373 47.4762 9.19749 49.1777 10.0047C50.9437 10.8486 53.0578 12.4753 54.2695 13.943L54.7207 14.4933L53.7023 13.8451C51.7043 12.5609 51.6785 12.5487 48.198 12.512L45.1688 12.4753L44.2664 11.6192C43.2738 10.6652 42.0492 9.83348 40.902 9.35648C39.8191 8.89172 37.8598 8.45142 36.9188 8.45142H36.0938V9.47879V10.4939L37.009 10.5795C38.9813 10.763 40.8504 11.558 42.2812 12.8178L43.1707 13.6005L42.8871 14.1142C42.668 14.5178 42.6035 14.8358 42.6035 15.5941V16.5481L41.8301 16.4869C38.6461 16.1934 35.8102 14.3833 34.4309 11.7904L34.0312 11.0199L33.348 11.2767C32.9871 11.4235 32.523 11.5947 32.3297 11.6558C32.1234 11.7292 31.9688 11.8271 31.9688 11.8882C31.9688 12.1695 32.8324 13.6005 33.4898 14.42C34.6113 15.8265 36.2742 17.0495 37.9758 17.7467C38.5172 17.9546 38.6332 18.0525 38.5816 18.2481C38.3754 18.9942 34.2891 17.9424 32.2652 16.6337C30.2672 15.3373 28.6816 13.2825 27.9727 11.0443C27.7793 10.4328 27.6375 10.1637 27.5215 10.2126C27.4312 10.2371 27.0059 10.3349 26.5805 10.4083C26.168 10.4939 25.7426 10.604 25.6523 10.6529C25.343 10.8364 26.3227 13.3437 27.2508 14.7747L27.5988 15.2883L27.0961 15.533C26.8125 15.6675 26.3355 15.961 26.0262 16.1812C25.4719 16.5726 25.4203 16.5848 24.4148 16.5481L23.3707 16.5114L23.4352 15.8387C23.5125 14.8847 23.2676 14.1631 22.5973 13.466C21.6949 12.512 21.45 12.4631 17.8406 12.512C14.3215 12.5487 14.2957 12.5609 12.3363 13.8207C11.4598 14.3833 10.6992 14.6279 10.6992 14.3466C10.6992 14.1754 12.027 12.2185 12.6844 11.4112C14.8113 8.78165 18.1629 6.53121 21.5402 5.46715C23.4609 4.85562 24.518 4.67216 27.0059 4.52539L29.1844 4.37862L30.3574 3.80378C32.7551 2.59295 34.9465 2.25049 37.9629 2.59295ZM29.584 17.3798C30.0609 17.8445 31.5691 18.8352 32.4457 19.2633C33.9152 19.9604 35.591 20.413 37.1895 20.5353L38.2207 20.6209L38.2852 22.5778C38.3625 24.816 38.4656 25.1585 39.3937 25.929C40.2188 26.6139 40.5797 26.675 43.8797 26.675H46.8059L46.7672 32.5091L46.7156 38.3553L46.3676 39.4316C45.7359 41.364 44.8723 42.6972 43.3383 44.067C41.5594 45.657 38.9297 46.721 36.777 46.7333H36.0938V47.8463V48.9592L37.1895 48.8736L38.2852 48.788V50.7938V52.8119L44.7047 53.8148C48.2238 54.3652 51.4336 54.9033 51.8203 55.0134C54.5402 55.7228 56.6285 57.8754 57.273 60.6395L57.3375 60.9208H33H8.6625L8.72695 60.6395C9.37148 57.8754 11.4598 55.7228 14.1797 55.0134C14.5664 54.9033 17.7762 54.3652 21.3082 53.8148L27.7148 52.8119V50.7938V48.788L28.8105 48.8736L29.9062 48.9592V47.8707V46.77L28.8234 46.6966C26.6836 46.5498 24.3762 45.5836 22.7262 44.1159C21.1535 42.7216 20.2641 41.3885 19.6324 39.4316L19.2844 38.3553L19.2328 32.5091L19.1941 26.675H22.1203C24.041 26.675 25.227 26.6261 25.575 26.5283C26.284 26.3326 27.3539 25.3174 27.5602 24.6448C27.8051 23.862 27.7664 19.1532 27.5215 18.4805C27.341 18.0035 27.341 17.9424 27.5473 17.7956C27.8051 17.6122 29.0168 17.0129 29.1328 17.0129C29.1715 17.0129 29.3777 17.1841 29.584 17.3798ZM11.8207 27.0664C10.248 29.0478 10.1965 31.9587 11.666 34.0746C12.6457 35.4566 14.2699 36.4351 16.0617 36.7164L17.0156 36.8632V37.5603C17.0156 38.1718 16.9641 38.3308 16.5516 38.8323C15.8812 39.6762 15.2367 41.046 15.0047 42.1468C14.7984 43.1742 14.8242 44.8008 15.082 45.6203C15.1465 45.8527 15.1852 46.0728 15.1465 46.0973C15.0305 46.2074 13.8574 45.1555 13.0969 44.2505C11.9109 42.8562 11.3309 41.6453 10.4285 38.6366C9.99023 37.2056 9.59062 35.9826 9.53906 35.9336C9.4875 35.8725 9.10078 37.1322 8.68828 38.71L7.92773 41.5964L7.52812 40.9849C6.81914 39.9208 6.50977 38.7834 6.50977 37.3157C6.50977 36.1538 6.56133 35.9214 6.98672 34.8084C7.24453 34.1357 7.59258 33.194 7.77305 32.7292C8.25 31.4695 8.48203 30.2464 8.58516 28.3506L8.67539 26.675H10.4027H12.1301L11.8207 27.0664ZM17.0156 30.6622V34.6616L16.4484 34.6005C15.0949 34.4537 13.6512 33.353 13.1484 32.0932C12.7617 31.127 12.8262 29.8183 13.3031 28.9377C13.8574 27.9226 14.9789 27.0542 16.0746 26.8096C17.1059 26.5772 17.0156 26.1981 17.0156 30.6622ZM50.6215 27.0542C51.3691 27.36 52.2973 28.1916 52.6969 28.9377C53.1738 29.8183 53.2383 31.127 52.8516 32.0932C52.3488 33.353 50.9051 34.4537 49.5516 34.6005L48.9844 34.6616V30.65V26.6506L49.5258 26.7362C49.8223 26.7851 50.3121 26.9319 50.6215 27.0542ZM57.4148 28.3384C57.518 30.2709 57.7242 31.445 58.2012 32.6925C59.5289 36.1416 59.4773 35.9459 59.4773 37.3157C59.4902 38.7834 59.1809 39.9208 58.4719 40.9849L58.0723 41.5964L57.3117 38.7222C56.8992 37.1445 56.5254 35.848 56.4738 35.848C56.4352 35.848 56.0227 37.0833 55.5844 38.5754C54.6691 41.6086 54.1277 42.7828 52.9805 44.1771C52.2973 45.0088 50.9695 46.2074 50.8535 46.0973C50.8148 46.0728 50.8535 45.8527 50.918 45.6203C51.1758 44.8008 51.2016 43.1742 50.9953 42.1468C50.7633 41.046 50.1187 39.6762 49.4484 38.8323C49.0359 38.3308 48.9844 38.1718 48.9844 37.5603V36.8632L49.9383 36.7164C51.0855 36.5329 52.4391 35.9459 53.2641 35.2487C55.6875 33.2062 56.1129 29.5126 54.1793 27.0664L53.8699 26.675H55.5973H57.3246L57.4148 28.3384Z" fill="white"/>
<path d="M31.8398 29.0478C31.8398 29.7205 31.3629 30.9802 30.8086 31.7874C29.9578 33.0472 29.7773 33.463 29.7773 34.1602C29.7773 34.9796 30.1254 35.7012 30.7441 36.1782C31.3371 36.643 32.0461 36.8264 33.2449 36.8264H34.1601V35.7257V34.6249H33.1933C31.8141 34.6249 31.7625 34.4782 32.6777 33.0839C33.4512 31.9342 33.941 30.6255 34.0957 29.3903L34.1859 28.632H33.0129H31.8398V29.0478Z" fill="white"/>
<path d="M22.3653 29.5738C21.8754 29.8062 21.4371 30.0264 21.3985 30.0631C21.2696 30.1731 21.9785 31.2249 22.4426 31.6285C24.2215 33.1573 27.0059 33.1084 28.7204 31.5307C29.0297 31.2494 29.3907 30.8091 29.5325 30.5645L29.7774 30.0997L28.7848 29.635L27.8051 29.158L27.4055 29.6472C26.9028 30.271 26.2582 30.589 25.5364 30.589C24.8145 30.589 23.9766 30.1364 23.5899 29.5494C23.4352 29.317 23.3063 29.1213 23.2934 29.1213C23.2805 29.1336 22.868 29.3292 22.3653 29.5738Z" fill="white"/>
<path d="M37.2152 29.6347L36.2227 30.0994L36.4676 30.5642C36.8414 31.2369 37.7309 31.9952 38.6074 32.3743C39.2133 32.6434 39.5613 32.7046 40.3477 32.7168C41.5207 32.7168 42.191 32.5456 43.0031 32.0196C43.6605 31.616 44.6016 30.5397 44.6016 30.2217C44.6016 30.1117 44.2148 29.8426 43.6477 29.5857L42.6809 29.1332L42.4102 29.549C42.0234 30.1361 41.1855 30.5886 40.4637 30.5886C39.7418 30.5886 39.0973 30.2707 38.5945 29.6469L38.1949 29.1577L37.2152 29.6347Z" fill="white"/>
<path d="M28.6301 38.7099C28.166 38.8567 27.7664 39.0524 27.7406 39.138C27.6375 39.4193 28.4109 40.6913 29.0941 41.3273C29.5066 41.7187 30.1125 42.1223 30.641 42.3669C31.466 42.7338 31.5949 42.7583 33 42.7583C34.4051 42.7583 34.534 42.7338 35.359 42.3669C35.8875 42.1223 36.4933 41.7187 36.9058 41.3273C37.6019 40.6668 38.3625 39.4071 38.2465 39.1135C38.182 38.9667 36.2613 38.3185 36.1969 38.4286C36.1711 38.4531 36.0035 38.7466 35.823 39.0891C35.2558 40.1409 33.8379 40.8503 32.6391 40.6913C31.4918 40.5445 30.1898 39.5783 29.9578 38.6977C29.8676 38.3552 29.7 38.3552 28.6301 38.7099Z" fill="white"/>
</svg>
