<svg width="70" height="60" viewBox="0 0 70 60" fill="none" xmlns="http://www.w3.org/2000/svg">
<path d="M34.2721 0.264705L33.9167 0.516793V3.73093C33.9167 5.59638 33.9714 7.04589 34.0534 7.18454C34.2448 7.52486 34.9282 7.70133 35.4202 7.53747C35.6525 7.47445 35.8986 7.31059 35.9669 7.18454C36.0489 7.04589 36.1036 5.59638 36.1036 3.73093V0.516793L35.7482 0.264705C35.5432 0.113451 35.2152 1.09673e-05 35.0102 1.09673e-05C34.8051 1.09673e-05 34.4771 0.113451 34.2721 0.264705Z" fill="white"/>
<path d="M23.4338 5.48294C23.0784 5.70982 22.9007 6.42826 23.1057 6.78118C23.2424 7.00806 26.5773 9.86924 27.739 10.7515C28.2584 11.1423 28.9008 11.1927 29.3655 10.9028C29.6935 10.6885 29.8848 10.0961 29.7482 9.70539C29.6798 9.50372 27.0283 7.19713 25.1285 5.69721C24.5545 5.24346 23.9258 5.16783 23.4338 5.48294Z" fill="white"/>
<path d="M44.892 5.69721C42.9922 7.19713 40.3406 9.50372 40.2723 9.70539C40.1356 10.0961 40.327 10.6885 40.655 10.9028C41.1197 11.1927 41.7621 11.1423 42.2814 10.7515C43.4432 9.86924 46.7781 7.00806 46.9148 6.78118C47.1198 6.42826 46.9421 5.70982 46.5868 5.48294C46.0947 5.16783 45.466 5.24346 44.892 5.69721Z" fill="white"/>
<path d="M9.99838 10.7013C9.46534 10.9533 9.397 11.092 8.01656 14.4447L7.23751 16.3606L6.54046 16.4362C6.14409 16.474 4.84566 16.5371 3.64291 16.5749C1.1964 16.6631 0.690694 16.7639 0.294332 17.2303C-0.0336921 17.621 -0.0746951 18.5916 0.212326 18.9823C0.321667 19.1336 1.42875 20.0033 2.67251 20.9234C3.92993 21.8435 4.94134 22.6754 4.94134 22.7762C4.94134 22.877 4.59965 24.1375 4.17595 25.5618C3.4789 27.9188 3.42423 28.1961 3.5609 28.6372C3.77959 29.3053 4.39463 29.6582 5.21469 29.5825C5.7204 29.5447 6.23977 29.28 8.24891 28.07C9.58835 27.2507 10.7364 26.5953 10.7911 26.5953C10.8594 26.5953 12.0349 27.276 13.4153 28.1078C15.6705 29.4691 15.9711 29.6204 16.5179 29.6204C17.0372 29.6204 17.2012 29.5573 17.5976 29.1918C18.24 28.5994 18.2126 28.2465 17.3106 25.1962C16.8869 23.7972 16.5725 22.6376 16.5862 22.625C18.0623 21.6292 21.3425 19.0831 21.4519 18.8437C21.6706 18.4025 21.6569 17.8353 21.4109 17.4068C21.0692 16.7765 20.5635 16.6631 17.7479 16.5623C16.3265 16.5119 14.9734 16.4362 14.7411 16.3984C14.3447 16.3228 14.29 16.222 13.2786 13.7641C12.6909 12.365 12.1442 11.1298 12.0349 11.0164C11.8162 10.7643 11.0781 10.4618 10.7228 10.4618C10.5861 10.4618 10.2581 10.5626 9.99838 10.7013ZM11.6385 15.9068C12.5816 18.2639 12.7592 18.4277 14.2764 18.5538C14.8914 18.5916 15.9711 18.642 16.6682 18.642C17.3516 18.6546 17.9256 18.705 17.9256 18.7554C17.9256 18.8184 17.1602 19.4235 16.2172 20.1167C14.577 21.3141 14.0987 21.8309 14.0987 22.3981C14.1123 22.5241 14.372 23.5199 14.7001 24.6038C15.0281 25.7004 15.2604 26.5953 15.2468 26.5953C15.2194 26.5953 14.372 26.0911 13.347 25.4609C11.4471 24.3139 10.8594 24.0871 10.2717 24.3139C10.0804 24.377 9.13731 24.9189 8.15324 25.5113C7.18284 26.0911 6.36278 26.5701 6.34911 26.5449C6.32177 26.5323 6.55412 25.7004 6.85481 24.6921C7.40152 22.8392 7.51086 22.0956 7.26484 21.6796C7.18284 21.541 6.36278 20.8604 5.41971 20.1671C4.47664 19.4613 3.71125 18.8437 3.71125 18.7932C3.71125 18.7302 4.70899 18.6546 5.91174 18.6042C8.23525 18.5159 8.72728 18.4025 9.09631 17.8605C9.19198 17.7093 9.60201 16.7765 9.99838 15.7934C10.3947 14.8103 10.7638 14.0288 10.8184 14.054C10.8594 14.0792 11.2285 14.9111 11.6385 15.9068Z" fill="white"/>
<path d="M34.3951 10.5751C33.8484 10.7894 33.5477 11.2936 32.5226 13.7766L31.4839 16.3227L30.9508 16.3983C30.6638 16.4488 29.3244 16.5244 27.9713 16.5748C25.2651 16.6756 24.7594 16.7891 24.4313 17.3815C24.2127 17.7722 24.1443 18.4781 24.2947 18.8436C24.3493 18.957 25.4837 19.8646 26.8095 20.8603L29.2424 22.6879L28.9143 23.7845C27.9986 26.8222 27.6432 28.2213 27.7389 28.4986C27.9713 29.217 28.5453 29.6204 29.338 29.6204C29.8164 29.6204 30.2401 29.4061 32.3859 28.1078C33.7664 27.2759 34.9418 26.5953 35.0101 26.5953C35.0784 26.5953 36.2539 27.2759 37.6343 28.1078C39.7255 29.3683 40.2175 29.6204 40.6549 29.6204C41.6389 29.6204 42.3086 28.9901 42.2813 28.1078C42.2676 27.7927 41.5843 25.2718 40.9555 23.293L40.7642 22.6879L43.197 20.8729C44.5365 19.8772 45.6709 18.957 45.7256 18.8436C45.8759 18.4781 45.8076 17.7722 45.5889 17.3815C45.2609 16.7891 44.7688 16.6756 42.049 16.5748C40.6959 16.5244 39.3564 16.4488 39.0694 16.3983L38.5364 16.3227L37.5113 13.8018C36.3769 11.0037 36.0899 10.6003 35.2015 10.5121C34.9144 10.4869 34.5454 10.5121 34.3951 10.5751ZM35.8302 15.8438C36.2539 16.9025 36.7322 17.8731 36.9372 18.0747C37.2516 18.4024 37.4019 18.4529 38.509 18.5411C39.1787 18.5915 40.2722 18.6419 40.9282 18.6419C41.7346 18.6545 42.1173 18.7049 42.09 18.7932C42.0626 18.8688 41.3109 19.4738 40.4088 20.1419C39.3018 20.9611 38.6867 21.5157 38.509 21.8434C38.2357 22.3728 38.1947 22.1081 39.0284 24.9945C39.3018 25.9273 39.4384 26.5575 39.3428 26.5071C39.2471 26.4693 38.386 25.9399 37.4019 25.3601C35.8438 24.4147 35.5568 24.2887 35.0101 24.2887C34.4634 24.2887 34.1764 24.4147 32.6183 25.3601C31.6479 25.9399 30.7731 26.4693 30.6775 26.5071C30.5955 26.5575 30.7321 25.9021 30.9918 24.9945C31.8255 22.1207 31.7845 22.3728 31.5112 21.8434C31.3335 21.5157 30.7185 20.9611 29.6114 20.1419C28.7093 19.4738 27.9576 18.8688 27.9303 18.7932C27.9029 18.7049 28.2856 18.6545 29.092 18.6419C29.7481 18.6419 30.8415 18.5915 31.5112 18.5411C32.6183 18.4529 32.7686 18.4024 33.083 18.0747C33.288 17.8731 33.7664 16.8899 34.19 15.8564C34.6001 14.8228 34.9691 13.9909 35.0101 13.9909C35.0511 13.9909 35.4201 14.8228 35.8302 15.8438Z" fill="white"/>
<path d="M58.5868 10.6382C58.3545 10.7264 58.0948 10.8903 57.9854 11.0163C57.8761 11.1297 57.3294 12.365 56.7417 13.7641C55.7166 16.2597 55.6893 16.3227 55.2519 16.3984C55.0196 16.4488 53.6665 16.5244 52.2587 16.5748C49.4568 16.6757 48.9511 16.7891 48.6094 17.4067C48.3634 17.8353 48.3497 18.4025 48.5684 18.831C48.6778 19.0705 52.5457 22.0955 53.3521 22.5745C53.4204 22.6123 53.1334 23.7971 52.7097 25.1962C51.8077 28.2465 51.7803 28.5994 52.4227 29.1918C52.8054 29.5447 52.9831 29.6204 53.5025 29.6204C54.0492 29.6204 54.3635 29.4691 56.6187 28.1078C57.9991 27.2759 59.1745 26.5953 59.2429 26.5953C59.2975 26.5953 60.473 27.2759 61.8534 28.1078C63.9719 29.3935 64.4366 29.6204 64.8876 29.6204C65.653 29.6204 66.2544 29.2296 66.4594 28.6372C66.5961 28.1961 66.5414 27.9188 65.8444 25.5618C65.4207 24.1375 65.079 22.877 65.079 22.7762C65.079 22.6753 66.0904 21.8435 67.3478 20.9233C68.5916 20.0032 69.6986 19.1335 69.808 18.9823C70.095 18.5915 70.054 17.621 69.726 17.2303C69.3296 16.7639 68.8239 16.6631 66.4457 16.5748C65.284 16.537 63.9856 16.474 63.5619 16.4362L62.7828 16.3606L61.7987 13.9531C60.637 11.1171 60.514 10.9029 59.9399 10.6508C59.4069 10.4239 59.1335 10.4239 58.5868 10.6382ZM60.0903 15.9446C60.514 16.9782 60.9377 17.9109 61.0197 17.9991C61.3887 18.4151 61.9354 18.5159 64.1086 18.6041C65.3113 18.6546 66.3091 18.7302 66.3091 18.7932C66.3091 18.8436 65.5437 19.4612 64.6006 20.1671C63.6575 20.8603 62.8375 21.541 62.7555 21.6796C62.5094 22.0955 62.6188 22.8392 63.1655 24.692C63.4662 25.7004 63.6985 26.5323 63.6712 26.5449C63.6575 26.5701 62.8375 26.0911 61.8671 25.4987C60.883 24.9189 59.9399 24.3769 59.7486 24.3013C59.1472 24.087 58.5595 24.3139 56.6734 25.4609C55.6483 26.0911 54.8009 26.5953 54.7735 26.5953C54.7599 26.5953 54.9922 25.7004 55.3203 24.6038C55.6483 23.5198 55.908 22.5241 55.9216 22.3981C55.9216 21.8309 55.4433 21.3141 53.8031 20.1167C52.8601 19.4234 52.0947 18.8184 52.0947 18.7554C52.0947 18.705 52.6277 18.6546 53.2974 18.6419C53.9535 18.6419 55.0196 18.5915 55.6756 18.5537C57.2337 18.4403 57.3704 18.3268 58.2451 16.2093C59.1062 14.1548 59.2019 13.9405 59.2702 14.0035C59.2975 14.0287 59.6666 14.8984 60.0903 15.9446Z" fill="white"/>
<path d="M9.12364 35.5569C8.1669 35.7712 6.97781 36.4518 6.43111 37.0821C4.65431 39.1618 4.87299 42.8549 6.92314 45.1741L7.49719 45.8421L6.45844 45.9934C4.92766 46.2329 3.05519 46.8253 2.26247 47.3168C1.3194 47.8966 0.499335 48.7915 0.23965 49.4974C-0.0610392 50.3167 -0.0883746 58.1818 0.212314 58.7112C0.472 59.165 1.10071 59.6943 1.56541 59.8582C2.09845 60.0473 19.2651 60.0473 19.7981 59.8582C20.2628 59.6943 20.8915 59.165 21.1512 58.7112C21.3015 58.4339 21.3425 57.5516 21.3425 54.224C21.3425 49.2579 21.3425 49.2579 19.9894 48.0101C18.8824 47.0017 17.7206 46.5101 15.4244 46.1068L13.8663 45.8295L14.4404 45.1741C15.6431 43.8128 16.2308 42.0734 16.1078 40.208C15.9711 38.1156 15.0964 36.767 13.347 35.9729C12.4039 35.5443 12.2125 35.5065 10.9824 35.4687C10.2581 35.4435 9.42433 35.4813 9.12364 35.5569ZM11.8162 37.6997C13.6066 38.1534 14.3037 40.2836 13.4153 42.5398C13.0326 43.4851 11.9118 44.5565 11.1738 44.6951C10.2991 44.8464 9.75235 44.6573 8.9733 43.9389C7.34684 42.4389 7.04615 39.5525 8.39925 38.3425C9.19198 37.6241 10.5587 37.372 11.8162 37.6997ZM14.5634 48.1487C16.3265 48.4638 17.2832 48.7789 18.0486 49.2831C19.06 49.9638 19.0874 50.052 19.1284 53.8711C19.1557 55.7366 19.142 57.3877 19.101 57.5516C19.019 57.8289 18.9507 57.8541 18.0623 57.8541H17.1192L17.0782 55.0685L17.0372 52.283L16.6409 51.9678C16.3128 51.7158 16.1488 51.6653 15.7525 51.7284C14.8231 51.867 14.7821 51.9931 14.7821 55.0937V57.8541H10.6818H6.58145V55.0937C6.58145 51.9931 6.54045 51.867 5.61105 51.7284C5.21468 51.6653 5.05067 51.7158 4.72265 51.9678L4.32629 52.283L4.28528 55.0685L4.24428 57.8541H3.31488C2.57682 57.8541 2.35814 57.8037 2.2898 57.6524C2.15312 57.3373 2.2078 51.1612 2.34447 50.6192C2.50848 49.9385 2.86384 49.5478 3.69757 49.0688C5.81606 47.8966 10.7774 47.4681 14.5634 48.1487Z" fill="white"/>
<path d="M33.452 35.5569C32.4953 35.7712 31.3062 36.4518 30.7595 37.0821C28.9827 39.1618 29.2014 42.8549 31.2515 45.1741L31.8256 45.8421L30.7868 45.9934C29.256 46.2329 27.3836 46.8253 26.5908 47.3168C25.6478 47.8966 24.8277 48.7915 24.568 49.4974C24.2673 50.3167 24.24 58.1818 24.5407 58.7112C24.8004 59.165 25.4291 59.6943 25.8938 59.8582C26.4268 60.0473 43.5934 60.0473 44.1265 59.8582C44.5912 59.6943 45.2199 59.165 45.4796 58.7112C45.6299 58.4339 45.6709 57.5516 45.6709 54.224C45.6709 49.2579 45.6709 49.2579 44.3178 48.0101C43.2107 47.0017 42.049 46.5101 39.7528 46.1068L38.1947 45.8295L38.7687 45.1741C39.9715 43.8128 40.5592 42.0734 40.4362 40.208C40.2995 38.1156 39.4248 36.767 37.6753 35.9729C36.7323 35.5443 36.5409 35.5065 35.3108 35.4687C34.5864 35.4435 33.7527 35.4813 33.452 35.5569ZM36.1445 37.6997C37.935 38.1534 38.6321 40.2836 37.7437 42.5398C37.361 43.4851 36.2402 44.5565 35.5022 44.6951C34.6274 44.8464 34.0807 44.6573 33.3017 43.9389C31.6752 42.4389 31.3745 39.5525 32.7276 38.3425C33.5203 37.6241 34.8871 37.372 36.1445 37.6997ZM38.8917 48.1487C40.6549 48.4638 41.6116 48.7789 42.377 49.2831C43.3884 49.9638 43.4157 50.052 43.4567 53.8711C43.4841 55.7366 43.4704 57.3877 43.4294 57.5516C43.3474 57.8289 43.2791 57.8541 42.3907 57.8541H41.4476L41.4066 55.0685L41.3656 52.283L40.9692 51.9678C40.6412 51.7158 40.4772 51.6653 40.0808 51.7284C39.1514 51.867 39.1104 51.9931 39.1104 55.0937V57.8541H35.0101H30.9098V55.0937C30.9098 51.9931 30.8688 51.867 29.9394 51.7284C29.5431 51.6653 29.379 51.7158 29.051 51.9678L28.6547 52.283L28.6137 55.0685L28.5726 57.8541H27.6159H26.6728V54.0854C26.6728 50.3797 26.6728 50.3167 26.9872 49.9007C28.2583 48.1613 34.1217 47.2916 38.8917 48.1487Z" fill="white"/>
<path d="M57.7805 35.5569C56.8238 35.7712 55.6347 36.4518 55.088 37.0821C53.3112 39.1618 53.5299 42.8549 55.58 45.1741L56.154 45.8421L55.1153 45.9934C53.5845 46.2329 51.7121 46.8253 50.9193 47.3168C49.9763 47.8966 49.1562 48.7915 48.8965 49.4974C48.5958 50.3167 48.5685 58.1818 48.8692 58.7112C49.1289 59.165 49.7576 59.6943 50.2223 59.8582C50.7553 60.0473 67.9219 60.0473 68.455 59.8582C68.9197 59.6943 69.5484 59.165 69.8081 58.7112C69.9584 58.4339 69.9994 57.5516 69.9994 54.224C69.9994 49.2579 69.9994 49.2579 68.6463 48.0101C67.5392 47.0017 66.3775 46.5101 64.0813 46.1068L62.5232 45.8295L63.0972 45.1741C64.3 43.8128 64.8877 42.0734 64.7647 40.208C64.628 38.1156 63.7533 36.767 62.0038 35.9729C61.0607 35.5443 60.8694 35.5065 59.6393 35.4687C58.9149 35.4435 58.0812 35.4813 57.7805 35.5569ZM60.473 37.6997C62.2635 38.1534 62.9605 40.2836 62.0722 42.5398C61.6895 43.4851 60.5687 44.5565 59.8307 44.6951C58.9559 44.8464 58.4092 44.6573 57.6302 43.9389C56.0037 42.4389 55.703 39.5525 57.0561 38.3425C57.8488 37.6241 59.2156 37.372 60.473 37.6997ZM63.2202 48.1487C64.9834 48.4638 65.9401 48.7789 66.7055 49.2831C67.7169 49.9638 67.7442 50.052 67.7852 53.8711C67.8126 55.7366 67.7989 57.3877 67.7579 57.5516C67.6759 57.8289 67.6076 57.8541 66.7192 57.8541H65.7761L65.7351 55.0685L65.6941 52.283L65.2977 51.9678C64.9697 51.7158 64.8057 51.6653 64.4093 51.7284C63.4799 51.867 63.4389 51.9931 63.4389 55.0937V57.8541H59.3386H55.2383V55.0937C55.2383 51.9931 55.1973 51.867 54.2679 51.7284C53.8715 51.6653 53.7075 51.7158 53.3795 51.9678L52.9831 52.283L52.9421 55.0685L52.9011 57.8541H51.9717C51.2337 57.8541 51.015 57.8037 50.9467 57.6524C50.81 57.3373 50.8647 51.1612 51.0013 50.6192C51.1653 49.9385 51.5207 49.5478 52.3544 49.0688C54.4729 47.8966 59.4343 47.4681 63.2202 48.1487Z" fill="white"/>
</svg>
