<svg width="48" height="40" viewBox="0 0 48 40" fill="none" xmlns="http://www.w3.org/2000/svg">
<path opacity="0.963" fill-rule="evenodd" clip-rule="evenodd" d="M48 2.447C48 3.09218 48 3.73736 48 4.38255C45.7188 15.2737 43.4531 26.1804 41.2031 37.1026C40.1305 39.9415 38.2087 40.6942 35.4375 39.3607C32.7365 37.2737 30.049 35.1692 27.375 33.0471C25.6109 34.6125 23.861 36.1946 22.125 37.7939C20.1268 39.3947 18.2049 39.318 16.3594 37.5634C16.1033 37.2186 15.8844 36.8499 15.7031 36.4574C14.1339 32.0596 12.5558 27.6662 10.9688 23.2772C7.92866 22.4294 4.89742 21.5538 1.875 20.6504C1.0114 20.2774 0.3864 19.6783 0 18.8531C0 18.4537 0 18.0543 0 17.6549C0.42249 16.7054 1.14124 16.0448 2.15625 15.6733C15.9302 10.4937 29.7114 5.33223 43.5 0.188852C45.7288 -0.390246 47.2288 0.362471 48 2.447ZM44.7188 2.81567C44.8332 2.86437 44.9425 2.92581 45.0469 3.00001C45.1094 3.33797 45.1094 3.67591 45.0469 4.01387C42.8594 14.644 40.6718 25.2742 38.4844 35.9044C38.3122 37.2264 37.7029 37.4875 36.6562 36.6878C32.1562 33.1239 27.6562 29.5601 23.1562 25.9962C27.9501 20.9452 32.7782 15.9219 37.6406 10.9266C38.3382 10.1264 38.3226 9.343 37.5938 8.57624C37.0763 8.31494 36.5451 8.28416 36 8.48407C28.0625 12.478 20.125 16.4721 12.1875 20.4661C12 20.5275 11.8125 20.5275 11.625 20.4661C8.99068 19.741 6.36568 18.9882 3.75 18.2079C17.3952 13.0198 31.0514 7.88903 44.7188 2.81567ZM29.625 14.982C26.3442 18.4072 23.0786 21.8482 19.8281 25.3049C19.0657 27.9653 18.347 30.6382 17.6719 33.3237C16.419 29.8435 15.1846 26.3564 13.9688 22.8625C19.1606 20.1874 24.3793 17.5606 29.625 14.982ZM21.8438 28.7152C22.959 29.473 24.0215 30.3025 25.0312 31.2038C23.436 32.6954 21.8266 34.1701 20.2031 35.6279C20.7333 33.3273 21.2802 31.0231 21.8438 28.7152Z" fill="white"/>
</svg>
