<svg width="40" height="40" viewBox="0 0 40 40" fill="none" xmlns="http://www.w3.org/2000/svg">
<path opacity="0.971" fill-rule="evenodd" clip-rule="evenodd" d="M19.2156 0.000912001C26.9038 -0.0614151 32.8494 3.07088 37.0527 9.39779C40.0781 14.5288 40.7743 19.9618 39.1413 25.6968C36.886 32.3213 32.4163 36.7148 25.7322 38.8774C20.4585 40.328 15.404 39.7874 10.5686 37.2558C7.10919 38.1894 3.64204 39.1041 0.167092 40C0.111392 39.9723 0.0557002 39.9445 0 39.9168C0.946853 36.535 1.89371 33.1533 2.84057 29.7715C-0.307283 24.0066 -0.655393 18.0746 1.79624 11.9757C5.31174 4.69429 11.1182 0.702701 19.2156 0.000912001ZM19.8004 3.4104C26.2376 3.58414 31.1251 6.3838 34.4628 11.8094C37.3032 17.1597 37.3032 22.5095 34.4628 27.8589C31.6544 32.5635 27.5188 35.3215 22.0562 36.1331C18.0932 36.5502 14.431 35.7047 11.0699 33.5968C9.03033 34.1563 6.98345 34.6829 4.92922 35.1768C5.44496 33.2067 5.97408 31.2386 6.51659 29.2726C3.21381 24.0791 2.75431 18.6461 5.13808 12.9736C8.20021 7.0315 13.0877 3.84376 19.8004 3.4104Z" fill="white"/>
<path opacity="0.974" fill-rule="evenodd" clip-rule="evenodd" d="M12.7825 10.6447C13.3997 10.6242 14.0124 10.6658 14.6205 10.7695C14.9589 11.0789 15.1956 11.4531 15.3306 11.892C15.781 13.038 16.2544 14.1744 16.7509 15.3013C16.8223 15.6444 16.7944 15.977 16.6674 16.2992C16.2259 16.9327 15.7525 17.5425 15.2471 18.1286C15.1914 18.3226 15.1914 18.5166 15.2471 18.7106C16.8696 21.5168 19.195 23.5264 22.2232 24.7393C22.4574 24.8021 22.6802 24.7744 22.8916 24.6561C23.522 23.9457 24.1207 23.2112 24.6878 22.4525C24.8317 22.2909 25.0127 22.2077 25.2309 22.2031C25.7004 22.2842 26.146 22.4367 26.5676 22.6604C27.7603 23.247 28.9438 23.843 30.1183 24.4482C30.2837 25.4301 30.1445 26.3725 29.7006 27.2755C28.284 29.0024 26.4598 29.6815 24.2283 29.3127C20.2205 28.4068 16.8647 26.425 14.161 23.3672C13.034 22.0516 12.0035 20.6657 11.0698 19.2096C10.1351 17.6625 9.80089 15.9994 10.0672 14.2203C10.3321 12.9858 10.9309 11.9464 11.8635 11.1021C12.1551 10.9015 12.4614 10.7491 12.7825 10.6447Z" fill="white"/>
</svg>
