<svg width="1015" height="340" viewBox="0 0 1015 340" fill="none" xmlns="http://www.w3.org/2000/svg">
<path fill-rule="evenodd" clip-rule="evenodd" d="M952.39 0H61.99C8.85 0 0 18.4 0 62.16V278.23C0 321.96 18.2 340 61.93 340H952.4C996.16 340 1015 321.93 1015 278.17V62.16C1015 18.4 996.15 0 952.39 0Z" fill="black"/>
<path fill-rule="evenodd" clip-rule="evenodd" d="M264.63 211.64C259.52 222.97 257.07 228.03 250.49 238.04C241.3 252.02 228.36 269.43 212.32 269.58C198.07 269.71 194.41 260.3 175.07 260.41C155.73 260.52 151.69 269.74 137.43 269.61C121.39 269.46 109.13 253.74 99.9401 239.76C74.2601 200.66 71.5701 154.78 87.4101 130.39C98.6701 113.06 116.42 102.91 133.12 102.91C150.12 102.91 160.81 112.23 174.86 112.23C188.49 112.23 196.8 102.89 216.46 102.89C231.32 102.89 247.06 110.98 258.27 124.97C221.53 145.12 227.5 197.61 264.63 211.64Z" fill="white"/>
<path fill-rule="evenodd" clip-rule="evenodd" d="M201.55 87.29C208.69 78.13 214.11 65.18 212.15 51.95C200.49 52.75 186.84 60.1699 178.87 69.8499C171.64 78.6299 165.67 91.66 168 104.32C180.73 104.71 193.9 97.11 201.55 87.29Z" fill="white"/>
<path d="M321.195 78.6328V135H341.078C357.875 135 367.758 124.531 367.758 106.719C367.758 88.9453 357.836 78.6328 341.078 78.6328H321.195ZM329.945 86.1719H340.258C352.172 86.1719 358.812 93.5156 358.812 106.797C358.812 120.117 352.211 127.422 340.258 127.422H329.945V86.1719Z" fill="white"/>
<path d="M392.758 135.781C404.516 135.781 412.25 127.695 412.25 114.453C412.25 101.25 404.477 93.1641 392.758 93.1641C381.039 93.1641 373.266 101.25 373.266 114.453C373.266 127.695 381 135.781 392.758 135.781ZM392.758 128.828C386.156 128.828 381.859 123.594 381.859 114.453C381.859 105.352 386.156 100.117 392.758 100.117C399.359 100.117 403.656 105.352 403.656 114.453C403.656 123.594 399.398 128.828 392.758 128.828Z" fill="white"/>
<path d="M472.836 93.9062H464.477L456.977 126.25H456.781L448.188 93.9062H440.062L431.508 126.25H431.352L423.852 93.9062H415.414L426.703 135H435.414L443.969 104.219H444.164L452.797 135H461.586L472.836 93.9062Z" fill="white"/>
<path d="M477.992 135H486.43V111.055C486.43 104.688 490.258 100.469 496.195 100.469C502.055 100.469 504.945 103.867 504.945 110.039V135H513.422V108.398C513.422 98.9844 508.227 93.2031 499.164 93.2031C492.836 93.2031 488.461 96.0938 486.234 100.781H486.039V93.9062H477.992V135Z" fill="white"/>
<path d="M521.898 135H530.336V78.6328H521.898V135Z" fill="white"/>
<path d="M556.664 135.781C568.422 135.781 576.156 127.695 576.156 114.453C576.156 101.25 568.383 93.1641 556.664 93.1641C544.945 93.1641 537.172 101.25 537.172 114.453C537.172 127.695 544.906 135.781 556.664 135.781ZM556.664 128.828C550.062 128.828 545.766 123.594 545.766 114.453C545.766 105.352 550.062 100.117 556.664 100.117C563.266 100.117 567.562 105.352 567.562 114.453C567.562 123.594 563.305 128.828 556.664 128.828Z" fill="white"/>
<path d="M597.055 129.023C592.523 129.023 589.555 126.68 589.555 123.086C589.555 119.57 592.406 117.344 597.445 116.992L607.562 116.367V119.609C607.562 124.961 602.953 129.023 597.055 129.023ZM594.711 135.703C600.102 135.703 605.297 132.812 607.68 128.242H607.875V135H615.961V106.68C615.961 98.4375 609.594 93.1641 599.633 93.1641C589.477 93.1641 583.148 98.6328 582.68 106.055H590.648C591.391 102.383 594.438 100.039 599.32 100.039C604.477 100.039 607.562 102.773 607.562 107.344V110.508L596.312 111.172C586.547 111.719 581.039 116.133 581.039 123.32C581.039 130.703 586.664 135.703 594.711 135.703Z" fill="white"/>
<path d="M639.594 135.703C645.57 135.703 650.258 132.695 652.68 128.008H652.836V135H661.039V78.6328H652.562V100.742H652.406C650.102 96.2109 645.414 93.2422 639.516 93.2422C629.203 93.2422 622.328 101.484 622.328 114.453C622.328 127.422 629.203 135.703 639.594 135.703ZM641.82 100.352C648.305 100.352 652.641 105.938 652.641 114.453C652.641 123.047 648.305 128.555 641.82 128.555C635.141 128.555 630.961 123.125 630.961 114.453C630.961 105.82 635.141 100.352 641.82 100.352Z" fill="white"/>
<path d="M703.617 135.781C715.375 135.781 723.109 127.695 723.109 114.453C723.109 101.25 715.336 93.1641 703.617 93.1641C691.898 93.1641 684.125 101.25 684.125 114.453C684.125 127.695 691.859 135.781 703.617 135.781ZM703.617 128.828C697.016 128.828 692.719 123.594 692.719 114.453C692.719 105.352 697.016 100.117 703.617 100.117C710.219 100.117 714.516 105.352 714.516 114.453C714.516 123.594 710.258 128.828 703.617 128.828Z" fill="white"/>
<path d="M729.633 135H738.07V111.055C738.07 104.688 741.898 100.469 747.836 100.469C753.695 100.469 756.586 103.867 756.586 110.039V135H765.062V108.398C765.062 98.9844 759.867 93.2031 750.805 93.2031C744.477 93.2031 740.102 96.0938 737.875 100.781H737.68V93.9062H729.633V135Z" fill="white"/>
<path d="M791.938 84.1797V93.9062H785.961V100.586H791.938V124.18C791.938 132.109 795.18 135.273 803.5 135.273C805.375 135.273 807.25 135.117 808.188 134.883V128.203C807.641 128.32 806.273 128.398 805.414 128.398C801.977 128.398 800.414 126.797 800.414 123.242V100.586H808.227V93.9062H800.414V84.1797H791.938Z" fill="white"/>
<path d="M815.492 135H823.93V111.25C823.93 104.766 827.758 100.469 834.008 100.469C839.945 100.469 842.992 104.102 842.992 110.156V135H851.469V108.516C851.469 99.2188 846.078 93.2031 837.055 93.2031C830.805 93.2031 826.312 95.9766 824.047 100.781H823.852V78.6328H815.492V135Z" fill="white"/>
<path d="M876.82 99.9609C882.719 99.9609 886.703 104.375 886.898 110.664H866.352C866.781 104.453 870.922 99.9609 876.82 99.9609ZM886.859 122.93C885.727 126.523 882.172 128.945 877.367 128.945C870.609 128.945 866.312 124.219 866.312 117.07V116.562H895.336V113.672C895.336 101.211 888.227 93.1641 876.82 93.1641C865.219 93.1641 857.797 101.758 857.797 114.648C857.797 127.617 865.102 135.781 877.172 135.781C886.586 135.781 893.695 130.43 894.867 122.93H886.859Z" fill="white"/>
<path d="M384.418 267.458H401.263L364.232 165.693H347.031L310 267.458H326.561L335.943 239.954H375.036L384.418 267.458ZM355.276 182.618H355.703L370.984 227.26H339.995L355.276 182.618Z" fill="white"/>
<path d="M449.521 192.068C438.718 192.068 430.117 197.499 425.71 206.032H425.426V193.267H410.571V292H425.924V255.257H426.279C430.544 263.509 439.073 268.727 449.806 268.727C468.57 268.727 481.009 253.847 481.009 230.363C481.009 206.878 468.499 192.068 449.521 192.068ZM445.47 255.821C433.671 255.821 425.853 245.807 425.853 230.363C425.853 215.059 433.742 204.904 445.47 204.904C457.624 204.904 465.229 214.847 465.229 230.363C465.229 245.948 457.624 255.821 445.47 255.821Z" fill="white"/>
<path d="M531.683 192.068C520.88 192.068 512.279 197.499 507.872 206.032H507.588V193.267H492.733V292H508.086V255.257H508.441C512.706 263.509 521.235 268.727 531.968 268.727C550.732 268.727 563.171 253.847 563.171 230.363C563.171 206.878 550.661 192.068 531.683 192.068ZM527.632 255.821C515.833 255.821 508.015 245.807 508.015 230.363C508.015 215.059 515.904 204.904 527.632 204.904C539.786 204.904 547.391 214.847 547.391 230.363C547.391 245.948 539.786 255.821 527.632 255.821Z" fill="white"/>
<path d="M601.617 239.107C602.612 257.514 617.964 269.15 640.709 269.15C665.018 269.15 680.299 257.232 680.299 238.191C680.299 223.31 671.557 214.918 650.518 209.981L639.217 207.231C625.996 203.987 620.594 199.755 620.594 192.562C620.594 183.535 629.053 177.329 641.42 177.329C653.787 177.329 662.246 183.464 663.17 193.62H678.664C678.167 176.06 663.312 164 641.633 164C619.741 164 604.318 176.06 604.318 193.62C604.318 207.795 613.06 216.54 631.896 221.053L645.187 224.227C658.479 227.471 664.094 232.196 664.094 240.095C664.094 249.192 654.783 255.821 641.846 255.821C628.342 255.821 618.462 249.192 617.325 239.107H601.617Z" fill="white"/>
<path d="M697.07 175.707V193.267H686.195V205.327H697.07V247.923C697.07 262.239 702.97 267.952 718.109 267.952C721.521 267.952 724.932 267.669 726.638 267.246V255.187C725.643 255.398 723.155 255.539 721.592 255.539C715.337 255.539 712.494 252.648 712.494 246.23V205.327H726.709V193.267H712.494V175.707H697.07Z" fill="white"/>
<path d="M769.495 268.868C790.889 268.868 804.962 254.27 804.962 230.363C804.962 206.526 790.818 191.927 769.495 191.927C748.171 191.927 734.027 206.526 734.027 230.363C734.027 254.27 748.1 268.868 769.495 268.868ZM769.495 256.315C757.482 256.315 749.664 246.865 749.664 230.363C749.664 213.931 757.482 204.48 769.495 204.48C781.507 204.48 789.325 213.931 789.325 230.363C789.325 246.865 781.578 256.315 769.495 256.315Z" fill="white"/>
<path d="M816.686 267.458H832.039V223.028C832.039 212.52 838.152 205.961 848.032 205.961C851.017 205.961 853.718 206.314 854.926 206.808V192.633C853.789 192.421 851.87 192.068 849.666 192.068C840.853 192.068 834.172 197.217 831.684 205.891H831.328V193.267H816.686V267.458Z" fill="white"/>
<path d="M892.309 204.198C903.042 204.198 910.292 212.167 910.647 223.522H873.261C874.042 212.309 881.577 204.198 892.309 204.198ZM910.576 245.666C908.515 252.154 902.047 256.527 893.304 256.527C881.008 256.527 873.19 247.993 873.19 235.088V234.171H926V228.952C926 206.455 913.064 191.927 892.309 191.927C871.199 191.927 857.695 207.442 857.695 230.715C857.695 254.129 870.986 268.868 892.949 268.868C910.079 268.868 923.015 259.207 925.147 245.666H910.576Z" fill="white"/>
</svg>
