<svg width="1015" height="340" viewBox="0 0 1015 340" fill="none" xmlns="http://www.w3.org/2000/svg">
<path fill-rule="evenodd" clip-rule="evenodd" d="M952.39 0H61.99C8.84999 0 0 18.4 0 62.16V278.23C0 321.96 18.2001 340 61.9301 340H952.4C996.16 340 1015 321.93 1015 278.17V62.16C1015 18.4 996.15 0 952.39 0Z" fill="black"/>
<path d="M87.05 67.55C84.77 68.35 83 70.48 83 73.23V271.52C83 274.25 84.74 276.36 86.99 277.18L192.33 172.34L87.05 67.55Z" fill="#00D6FF"/>
<path d="M222.01 142.8L92.0198 68.01C90.3898 67.07 88.6098 67 87.0498 67.55L192.33 172.34L222.01 142.8Z" fill="#00F076"/>
<path d="M92.0203 276.73L222.06 201.91L192.33 172.32L86.9902 277.16C88.5602 277.74 90.3703 277.68 92.0203 276.73Z" fill="#FF3A44"/>
<path d="M222.06 201.92L264.35 177.59C268.37 175.28 268.37 169.47 264.35 167.16L222.01 142.8L192.33 172.34L222.06 201.92Z" fill="#FFD000"/>
<path d="M509.724 194.767C491.434 194.767 476.958 208.482 476.958 227.533C476.958 245.822 491.434 260.298 509.724 260.298C528.013 260.298 542.489 246.583 542.489 227.533C542.479 207.721 528.004 194.767 509.724 194.767ZM509.724 246.574C499.823 246.574 491.434 238.194 491.434 226.762C491.434 215.33 499.813 206.951 509.724 206.951C519.624 206.951 528.013 214.569 528.013 226.762C528.004 238.194 519.624 246.574 509.724 246.574ZM438.857 194.767C420.567 194.767 406.091 208.482 406.091 227.533C406.091 245.822 420.567 260.298 438.857 260.298C457.146 260.298 471.622 246.583 471.622 227.533C471.622 207.721 457.146 194.767 438.857 194.767ZM438.857 246.574C428.956 246.574 420.567 238.194 420.567 226.762C420.567 215.33 428.946 206.951 438.857 206.951C448.767 206.951 457.146 214.569 457.146 226.762C457.146 238.194 448.767 246.574 438.857 246.574ZM354.285 204.668V218.383H387.05C386.289 226.001 383.236 232.098 379.432 235.902C374.857 240.477 367.239 245.803 354.285 245.803C333.712 245.803 318.476 229.805 318.476 209.233C318.476 188.661 334.473 172.663 354.285 172.663C364.956 172.663 373.335 177.238 379.432 182.564L389.333 172.663C380.954 165.045 370.282 158.948 355.046 158.948C327.616 158.948 304 181.803 304 209.233C304 236.663 327.616 259.518 355.046 259.518C370.282 259.518 380.954 254.943 390.094 245.042C399.234 235.902 402.287 222.948 402.287 213.037C402.287 209.994 402.287 206.941 401.526 204.658L354.285 204.668ZM700.201 215.339C697.157 207.721 689.529 194.767 672.771 194.767C656.012 194.767 642.298 207.721 642.298 227.533C642.298 245.822 656.012 260.298 674.302 260.298C688.778 260.298 697.918 251.158 700.971 245.822L690.3 238.204C686.486 243.54 681.921 247.344 674.302 247.344C666.684 247.344 662.109 244.301 658.305 237.443L701.732 219.153L700.201 215.339ZM656.003 226.001C656.003 213.808 665.904 206.951 672.761 206.951C678.097 206.951 683.432 209.994 684.954 213.808L656.003 226.001ZM620.194 257.245H634.67V162.002H620.194V257.245ZM597.339 201.625C593.525 197.811 587.438 194.006 579.82 194.006C563.822 194.006 548.586 208.482 548.586 226.772C548.586 245.062 563.061 258.776 579.82 258.776C587.438 258.776 593.535 254.962 596.578 251.158H597.339V255.733C597.339 267.926 590.481 274.784 579.82 274.784C571.441 274.784 565.344 268.687 563.822 263.351L551.629 268.687C555.443 277.066 564.583 287.738 580.58 287.738C597.339 287.738 611.054 277.837 611.054 254.211V196.308H597.339V201.625ZM580.58 246.574C570.68 246.574 562.291 238.194 562.291 226.762C562.291 215.33 570.67 206.951 580.58 206.951C590.491 206.951 598.1 215.33 598.1 226.762C598.1 238.194 590.481 246.574 580.58 246.574ZM766.483 162.002H732.196V257.245H746.671V221.436H766.483C782.48 221.436 797.717 210.004 797.717 191.724C797.717 173.444 782.48 162.002 766.483 162.002ZM767.244 207.721H746.671V174.956H767.244C777.915 174.956 784.002 184.096 784.002 190.953C783.241 199.342 777.154 207.721 767.244 207.721ZM854.869 194.006C844.197 194.006 833.536 198.581 829.721 208.482L842.676 213.818C845.719 208.482 850.294 206.96 855.63 206.96C863.248 206.96 870.105 211.535 870.866 219.153V219.914C868.584 218.393 862.487 216.1 856.39 216.1C842.676 216.1 828.961 223.719 828.961 237.434C828.961 250.388 840.393 258.767 852.576 258.767C862.477 258.767 867.052 254.192 870.866 249.627H871.627V257.245H885.342V220.675C883.82 203.907 870.866 194.006 854.869 194.006ZM853.337 246.574C848.762 246.574 841.905 244.291 841.905 238.194C841.905 230.576 850.284 228.294 857.142 228.294C863.238 228.294 866.282 229.815 870.096 231.337C868.584 240.477 860.956 246.574 853.337 246.574ZM933.344 196.289L917.347 237.434H916.586L899.827 196.289H884.591L909.738 254.192L895.262 286.197H909.738L948.6 196.289H933.344ZM805.345 257.245H819.821V162.002H805.345V257.245Z" fill="white"/>
<path d="M330.571 105.435H354.314C354.45 105.971 354.558 106.635 354.655 107.396C354.743 108.166 354.792 108.927 354.792 109.698C354.792 112.809 354.314 115.736 353.368 118.487C352.422 121.237 350.929 123.695 348.9 125.861C346.735 128.163 344.14 129.938 341.126 131.207C338.102 132.465 334.658 133.099 330.776 133.099C327.255 133.099 323.948 132.465 320.836 131.207C317.725 129.948 315.023 128.183 312.72 125.929C310.418 123.676 308.594 121.003 307.238 117.911C305.882 114.819 305.209 111.454 305.209 107.796C305.209 104.138 305.882 100.772 307.238 97.6801C308.594 94.5879 310.418 91.9249 312.72 89.6619C315.023 87.4086 317.725 85.6527 320.836 84.3847C323.948 83.1263 327.264 82.4923 330.776 82.4923C334.697 82.4923 338.199 83.1653 341.292 84.5212C344.384 85.8771 347.027 87.75 349.242 90.1301L342.95 96.2852C341.37 94.6172 339.614 93.3393 337.673 92.4614C335.731 91.5835 333.41 91.1446 330.708 91.1446C328.494 91.1446 326.406 91.5445 324.416 92.3249C322.436 93.115 320.7 94.227 319.207 95.6707C317.715 97.1143 316.534 98.8604 315.657 100.909C314.779 102.957 314.34 105.25 314.34 107.776C314.34 110.303 314.779 112.585 315.657 114.643C316.534 116.692 317.734 118.438 319.237 119.881C320.748 121.325 322.495 122.437 324.475 123.227C326.455 124.017 328.581 124.408 330.835 124.408C333.4 124.408 335.575 124.037 337.36 123.296C339.146 122.554 340.667 121.598 341.926 120.418C342.823 119.608 343.603 118.584 344.257 117.345C344.911 116.106 345.418 114.721 345.779 113.19H330.562V105.435H330.571Z" fill="white"/>
<path d="M371.492 92.2468V103.474H390.903V112.136H371.492V123.364H393.069V132.016H362.361V83.5848H393.069V92.2371H371.492V92.2468Z" fill="white"/>
<path d="M411.729 132.016V92.2468H398.2V83.5945H434.379V92.2468H420.85V132.016H411.729Z" fill="white"/>
<path d="M455.761 83.5848H464.891V132.006H455.761V83.5848Z" fill="white"/>
<path d="M484.908 132.016V92.2468H471.378V83.5945H507.558V92.2468H494.028V132.016H484.908Z" fill="white"/>
<path d="M550.507 133.099C546.898 133.099 543.552 132.445 540.46 131.138C537.367 129.831 534.695 128.036 532.441 125.763C530.188 123.491 528.423 120.808 527.135 117.716C525.847 114.624 525.204 111.327 525.204 107.805C525.204 104.284 525.847 100.987 527.135 97.8947C528.423 94.8025 530.188 92.12 532.441 89.8472C534.695 87.5744 537.367 85.7796 540.46 84.4724C543.552 83.1653 546.898 82.5118 550.507 82.5118C554.116 82.5118 557.462 83.1653 560.554 84.4724C563.646 85.7796 566.309 87.5744 568.572 89.8472C570.826 92.12 572.601 94.8123 573.879 97.8947C575.166 100.987 575.81 104.284 575.81 107.805C575.81 111.327 575.166 114.624 573.879 117.716C572.591 120.808 570.826 123.491 568.572 125.763C566.319 128.036 563.646 129.831 560.554 131.138C557.462 132.436 554.116 133.099 550.507 133.099ZM550.507 124.437C552.76 124.437 554.867 124.027 556.828 123.218C558.788 122.408 560.505 121.276 561.968 119.833C563.432 118.389 564.583 116.643 565.422 114.594C566.251 112.546 566.67 110.273 566.67 107.796C566.67 105.318 566.251 103.055 565.422 100.997C564.583 98.9482 563.441 97.2021 561.968 95.7585C560.505 94.3148 558.788 93.193 556.828 92.3736C554.867 91.5542 552.76 91.1543 550.507 91.1543C548.254 91.1543 546.147 91.564 544.186 92.3736C542.225 93.1833 540.508 94.3148 539.045 95.7585C537.582 97.2021 536.431 98.9482 535.592 100.997C534.753 103.045 534.344 105.318 534.344 107.796C534.344 110.273 534.763 112.546 535.592 114.594C536.421 116.643 537.572 118.389 539.045 119.833C540.508 121.276 542.225 122.398 544.186 123.218C546.147 124.037 548.254 124.437 550.507 124.437Z" fill="white"/>
<path d="M583.175 83.5848H593.798L613.278 116.048H613.814L613.278 106.713V83.5848H622.34V132.006H612.732L592.169 97.7191H591.633L592.169 107.054V132.006H583.175V83.5848Z" fill="white"/>
</svg>
